<?xml version="1.0" encoding="UTF-8"?>
<svg id="Layer_1" xmlns="http://www.w3.org/2000/svg" version="1.1" viewBox="0 0 711.9 246.9">
  <!-- Generator: Adobe Illustrator 30.5.1, SVG Export Plug-In . SVG Version: 2.1.4 Build 3)  -->
  <defs>
    <style>
      .st0 {
        fill: #850a85;
      }

      .st1 {
        fill: #fff;
      }
    </style>
  </defs>
  <path class="st0" d="M154.6,111.6c-.6-2.6.8-4.8,2.2-6.7l-10-.3-17.8.3-21.1.2c-.5,2.8,0,5.8,1.8,8.3,2.7,3.7,3.2,8.3,1.5,12.5-2.3,5.6-7.8,8.2-13.6,6.7-3.4-.8-6.2-2.4-7.7-5.7l-2.3-5c-1-2.1-2.1-4.1-3.7-5.8-3.2-3.3-7.8-4.3-11.9-2.5s-6.5,5.9-6.1,10.6c.7,7.6,5.9,14.8,11.9,19.4,4,3,7,.5,8.7,1.4s1.3,2.8.4,3.7-2.7,1.2-4.2,1.1c-5.2-.5-9.6-3.2-13-7.2l-2,14.2-1.3,3.2-3.1,6.2-3.5,5.2c-1.1,1.7-2.7,3-4.2,4.3l10,.3c-.2,1.2-1,2.1-1.9,2.8h-11.6c0,0-.5,3.8-.5,3.8l13.6.3-.4,2.2h-14.1c0,0-2.6,7-2.6,7l27,.4c0,.8,0,1.6-.4,2.4l-7.9.6h-19.9c0,0-2.6,6.8-2.6,6.8h23.9c.6.2,1.5.9,1.9,1.4-.1.5-.9,1.7-1.4,1.7l-26.3.2-4.3,6.5h25.6c.7,0,1.9.4,2.1,1s-.5,1.7-1.1,2.1h-29.1l-2.7,4c-.5.7-2.3.9-3,.5-1.2-.6-1.4-2.2-.6-3.2l4-5.5c1.9-2.7,4.4-5,5.6-8.2l5.9-15.3c1.3-3.3,2.2-6.7,2.7-10.2-1.6-.5-3.4-.8-4.5-2.1-4.4-4.9-7.1-10.8-8.4-17.4l-2.1,2.2c-4.6-4-8.7-10.2-8.7-16.1-.9.4-2,.8-2.7.7-1.6-.3-2.9-3-3.3-4.8l-1.6-7.6-2.2,2.6c-1.3-4.8-2.5-9.1-4.3-13.5l-2-14.5-3.1,6.6c-.2.5-.8,1.1-1.3,1.5-.9-.5-1.5-1-2.3-1.7-1.7-9.8-1.5-19.8,1.9-29.2,2.2-6.2,5.5-11.6,8.7-17.4-3.1,1.5-6.6,2.4-9.9.7,1.8-.5,3.1-1,4.2-2.3l3.7-4.3c1.1-1.3,2.4-2.5,2.9-4.1,3.9-11.5,11.7-19.5,23.5-22.6,5.2-16.1,23.1-24.9,39.2-26.3s11.5-1.4,16.9-3.8,3.6-4.9,5.7-3.5.6,1.7.3,2.4c-1,2.7-2.9,4.4-5.3,5.9l21-1.4,5.3-.2,2.4-3c.8.7,1.2,2.5.5,3.2l-5.3,4,6.9-.5c4.7-.3,9.2-.2,13.7,1.1l13,3.9c3.1.9,6.2,1.1,9.2,2.3s5.4,2.6,7.1,5.1l1.8,3.2c3.2.1,6.3.6,9.1,2.3l7.7,4.7c2.7,1.7,5.4,3.2,8.4,4.2l.7.2c.1,0-.2.5-.3.5l-.6.2,3.5,1c-1.3,2-3.5,2.3-5.8,2,11,9.4,16.4,21.7,11.8,36-1.1-.4-2.7-.5-3.4-1.1l-5.2-4.1-.2,4h-2.7l-.9-3.3-3.1,10.3c-.3,1.1-.5,1.3.2,2.3,1.5,2,1.9,4.6,2.3,7l.3,10.3c.2.5,1.2,1.6,1.7,1.4l3.3-.8c.4,1.3.2,3.1-.8,3.8l-4.7.2-.5,5.2,11.4,16.4c1.9,2.8,2.8,8,.7,10.5l-8.3,10c-1.3,2.6-1.4,5.9-1.7,8.8-.6,5.6-1.2,11-2.5,16.5l-4,12.6c-1.4,5.5-3.2,10.6-6.2,15.3-2.1,3.2-4.7,5.6-8.3,6.9-12.3,4.5-29.6.3-42.1-3.7-2,2.2-4.3,4.1-5.6,6.8-4.8,9.5-6.8,19.9-6.7,30.5,0,1.4-.1,2.8-1.7,3.4s-2.7-.4-3-1.4c-.7-9.6.8-18.9,3.9-28,1.6-4.9,4-9.1,7.5-13.2l-9.1-3.7c-1-.4-1.7-2-1.4-3s1.8-2.1,3-1.7l17.4,6.2c10.3,3.1,22.8,5.7,33.3,3.9,6.7-1.2,10.8-8,12.9-14.3l4.9-14.8-11.2-4.6c0-.9.1-1.9.4-2.8,1.4-.8,2.5-.6,3.9,0l7.9,2.6,2.5-18.4c.5-3.4,1.6-6.4,3.9-8.9l5.6-6.2c1.6-1.8,1.5-4.1.4-6.2l-8.4-12.5-.6-.4v.2c-.1,0-2.5,9.8-2.5,9.8-.8,3.4-3,7.1-6.2,6.5s-3.7-5.8-3.6-9.1l.3-5.9,1.7-14.8-7.6-.5-6.9-.5h-.3c2.3,4.4,3.1,12.8-.7,15.2-1.3.8-3.3.6-4.4-.6s0-1.5.3-1.9,1.5-.6,2.5-.3c.9-3.5.9-7.3-.8-10.7-1.6,2.4-1.7,5-1.2,7.6l-2.8,2.2-1-4.7h-.2ZM70.3,40.5c9.9-11.8,18.4-20.8,33.9-23.6-8.8-1.5-18.7,4.4-24.5,10.7-3.6,4-6.9,8.1-9.4,12.8h0ZM33.2,68.4c2.2-2.3,3.8-5.1,4.8-8.2l2-8.3c2.2-11.8,9.2-21.7,19.6-27.8-14.4,4.5-20.9,17-22.6,31.4-.9,4.4-2.3,8.4-3.8,12.9h0ZM99.2,51.1l10.4-14c4.9-6.6,11.4-10,19.2-12.4-3.2-.2-6.2.4-9.2,1.8-7.7,3.6-12.1,8.8-16.8,15.7-8.2,12.1-16.1,19.2-29.5,25.2,10.4-1.8,18.9-8.6,26-16.3h0ZM135.9,52l1.4-5.7c1.5-6.1,5.1-11,10.1-14.9-5.4.1-10.3,8.5-11.3,13.5l-3,14.3c1.5-2.3,2.2-4.6,2.9-7.2h0ZM175.7,46.9l-3.5-4.8c-1.7-2.3-4-4.2-6.6-5.3l6.7,7.3c2.1,2.8,3.3,6.1,4.9,9.4.4-2.3-.1-4.6-1.5-6.6h0ZM163.1,97.3l-5.4,1.7,6.6.6,1.3-1.6c.8,1.3,1.5,1.4,2.7,1.5l10,.6,2.4-11.9c.6-3.1,1.2-5.8,2.6-8.6s1.6-4.9.8-7.5l-3.7-11.4-.7,7.1c-.3,2.7-1,5.6-2.6,7.7l-6.1,7.9c.6,1.1,1.2,2.2,1.3,3.5,0,1.1-1.6,2.3-2.7,2-4.4-1.3-8.8-1.5-13.1,0l-7.7,2.9c-.6.2-1.7-1-1.8-1.6s.1-1.9.7-2.3c5.3-3.7,13.6-6.7,20.3-5.9l.3-4.6c1.1-7.7-1.5-12.6-5.1-19v7c-.4,3.6-1.9,6.7-4.3,9.3l-2.7.4c-.2-1.3.1-2.1.6-3.2,1.6-3.9,1.6-8.3.5-12.6-3,8.8-6.7,18.7-13.9,24.6-1.4,1.2-3.3,2-4.1,1.2s-.5-1-.3-1.4l1.5-4.1c.8-2.2,1.6-4.3,1.7-6.7l-5.6,6.9c-.8,1-1.8,1.9-2.4,3.1-2.1,4.3-5,9.6-9.9,8.5l1.5-3.5c1.3,0,2.1,0,2.8-.7s.8-1.3.8-2.4l-8.5,2.9c.7,4.7-1.7,8.1-4.8,11.1l39.1-.2,2.6-1.4c1.7-.9,3.6-1.5,5.5-.3l-.2.3ZM14,86.1l10.6-9.1-7.8,4.7c-.8.5-2.3.5-3.4.7l10.1-21.8c-2.6,2-4.3,4.8-5.8,7.7l-7.4,14c-2.7,5.1-4.5,10.4-5.2,16.2,2-4.8,5-8.7,8.9-12.4h0ZM180.8,128.2l4.4-23.6c.8-4.3.2-8.5-.2-12.7-2.8,11.8-4.8,24.2-4.2,36.3ZM179.8,117.4c.7-1.3.6-2.5.5-3.8l-3,1.4-.2,4.1,2.7-1.6h0Z"/>
  <path d="M192.9,79.7c-.5,1.9-2,3.5-4.5,2.9l1.6-3.9,2.9,1Z"/>
  <path class="st1" d="M163.1,97.3c-1.9-1.2-3.8-.6-5.5.3l-2.6,1.4-39.1.2c3.1-3,5.5-6.3,4.8-11.1l8.5-2.9c0,1.2-.2,2-.8,2.4s-1.5.7-2.8.7l-1.5,3.5c4.9,1,7.8-4.3,9.9-8.5s1.6-2.1,2.4-3.1l5.6-6.9c0,2.4-.9,4.4-1.7,6.7l-1.5,4.1c-.1.3.1,1.2.3,1.4.9.8,2.7,0,4.1-1.2,7.2-5.9,10.9-15.8,13.9-24.6,1.1,4.3,1.2,8.7-.5,12.6s-.8,1.9-.6,3.2l2.7-.4c2.5-2.6,3.9-5.7,4.4-9.3v-7c3.6,6.4,6.2,11.3,5.1,19l-.3,4.6c-6.7-.8-15,2.2-20.3,5.9-.6.4-.8,1.7-.7,2.3s1.2,1.8,1.8,1.6l7.7-2.9c4.3-1.6,8.7-1.4,13.1,0s2.7-.9,2.7-2-.7-2.4-1.3-3.5l6.1-7.9c1.7-2.2,2.3-5,2.6-7.7l.7-7.1,3.7,11.4c.8,2.6.4,5.1-.8,7.5s-2,5.6-2.6,8.6l-2.4,11.9-10-.6c-1.2,0-1.9-.2-2.7-1.5l-1.3,1.6-6.6-.6,5.4-1.7v-.3Z"/>
  <path class="st1" d="M99.2,51.1c-7.1,7.6-15.6,14.5-26,16.3,13.4-6,21.3-13.1,29.5-25.2,4.7-6.9,9.1-12,16.8-15.7s6-2,9.2-1.8c-7.8,2.4-14.3,5.8-19.2,12.4l-10.4,14h0Z"/>
  <path class="st1" d="M14,86.1c-3.9,3.7-6.8,7.6-8.9,12.4.6-5.8,2.5-11.1,5.2-16.2l7.4-14c1.5-2.9,3.2-5.6,5.8-7.7l-10.1,21.8c1.1,0,2.6-.2,3.4-.7l7.8-4.7-10.6,9.1h0Z"/>
  <path class="st1" d="M33.2,68.4c1.4-4.5,2.8-8.5,3.8-12.9,1.8-14.5,8.3-26.9,22.6-31.4-10.3,6.1-17.3,16-19.6,27.8l-2,8.3c-1.1,3.1-2.7,5.9-4.8,8.2Z"/>
  <path class="st1" d="M180.8,128.2c-.6-12.1,1.4-24.4,4.2-36.3.4,4.2,1,8.4.2,12.7l-4.4,23.6Z"/>
  <path class="st1" d="M70.3,40.5c2.5-4.7,5.8-8.8,9.4-12.8,5.8-6.3,15.6-12.3,24.5-10.7-15.5,2.8-23.9,11.8-33.9,23.6h0Z"/>
  <path class="st1" d="M135.9,52c-.6,2.6-1.4,4.9-2.9,7.2l3-14.3c1-4.9,6-13.3,11.3-13.5-5,3.8-8.6,8.8-10.1,14.9l-1.4,5.7h0Z"/>
  <path class="st1" d="M175.7,46.9c1.4,1.9,2,4.3,1.5,6.6-1.6-3.3-2.8-6.5-4.9-9.4l-6.7-7.3c2.6,1,4.9,2.9,6.6,5.3l3.5,4.8h0Z"/>
  <path class="st1" d="M179.8,117.4l-2.7,1.6.2-4.1,3-1.4c.2,1.3.3,2.5-.5,3.8h0Z"/>
  <g>
    <path class="st0" d="M268.7,82h8.9v12.7c0,10.2-1.2,16.9-8.6,16.9s-7.9-5-7.9-12.9v-41.1c0-9.1,2.8-12.6,8.3-12.6s8,6.4,8,12v2.2h8.5v-2c0-10.1-2.5-20-16.4-20s-17,8-17,21.1v39.9c0,12.8,3.6,20.9,14.6,20.9s9.7-2.1,11.7-8c0,1.8.3,5.6.5,6.9h6.7v-43.6h-17.4v7.6Z"/>
    <path class="st0" d="M324.9,72c0-9-3.3-15.6-13.9-15.6s-14.7,7.2-14.7,15.7v1.5h8.4v-1.6c0-4.8,1.3-8.4,6-8.4s5.7,3.5,5.7,9v9.6h-2.6c-10.8,0-19.4,4.9-19.4,18.6v1.1c0,9.4,3.5,17.2,12.3,17.2s8-1.4,9.9-5.9c0,1,.3,3.5.6,4.9h7.9c-.2-1.8-.2-6.4-.2-10.5v-35.6h0ZM316.6,97.9c0,9.1-1.9,13.6-7.5,13.6s-6.4-4.4-6.4-9.8v-1c0-8.8,4.1-11.7,11-11.7h3v8.9h-.1Z"/>
    <path class="st0" d="M354.2,119c11.1,0,13.7-9.1,13.7-21.5v-23.4c0-10.5-3.6-17.6-12.3-17.6s-9.2,2.7-10.9,6.5v-28.1h-8.5v67.2c0,7.2,0,12.6-.1,16.1h7.7c.2-1.8.3-3.4.3-5.8,1.4,3.8,4.4,6.7,10.1,6.7h0ZM344.6,79.1c0-8.4,1.1-14.9,8-14.9s6.7,4.2,6.7,11.1v23.6c0,8.4-2.4,12.3-7.1,12.3s-7.7-4.2-7.7-13.4v-18.7h.1Z"/>
    <path class="st0" d="M377.4,78.1v40.1h8.5v-35.7c0-11,5.1-15.3,12.6-15.4v-10.5c-5.3,0-10.6,2.8-12.8,10.3,0-4.1-.2-7.9-.3-9.5h-8.1c.2,5.4.1,10.9.1,20.7h0Z"/>
    <path class="st0" d="M404.6,114.3c-.8-.2-1.6-.4-2.5-.4s-1.4.2-2.2.5c-.9.3-1.7.8-2.5,1.3s-1.5,1.2-2,1.8c-.5.7-.8,1.4-.8,2.1v3.7c0,1.5.2,3.2.3,5.3.2,3,.4,6.2.5,9.9.1,3.6.2,7.3.2,11,0,13-1.8,22.7-5.3,29.2s-9,9.7-16.3,9.7-2,0-2.9-.2c-.9,0-1.7-.3-2.6-.6s-1.8-.6-2.8-1-2.1-.8-3.4-1.3c-4-1.7-6.7-2.5-7.9-2.5-2.3,0-4.2.6-5.7,1.7-1.5,1.1-2.2,2.8-2.2,5s.5,2.4,1.5,3.5c.9.9,2,1.7,3.2,2.5s2.6,1.5,4.1,2.1,3.1,1.2,4.9,1.6c1.7.4,3.6.8,5.4,1,3.4.5,6.7.7,10,.7s4.7-.3,6.8-.6c2.1-.4,3.9-1,5.6-1.8,2.8-1.4,5.3-3.1,7.6-5.2,2.3-2.1,4.3-4.4,6-6.9s3.2-5.2,4.4-7.9,2.1-5.5,2.7-8.1c.8-3.4,1.3-7.8,1.7-13,.4-5.2.5-11.3.5-18.2-.2-1.9-.4-3.6-.5-5.1s-.3-3-.4-4.8c-.2-1.7-.3-3.4-.5-4.9-.2-1.6-.3-2.9-.4-4s-.2-1.8-.3-2.1h4.3v-60.8h-8.5v56.9h0Z"/>
    <rect class="st0" x="404.6" y="34.9" width="8.5" height="12.3"/>
    <path class="st0" d="M438.1,119.1c13.5,0,15.1-10.8,15.1-17.9v-.4h-8.3v.5c0,5.8-1.1,10.5-6.8,10.5s-7.2-6.3-7.2-12.3v-9.9h22.5v-13.7c0-10.7-3.4-19.4-15.1-19.4s-15.7,10.2-15.7,19.4v22.6c0,12.3,2.9,20.7,15.5,20.7h0ZM430.9,75.1c0-6.6,1.5-11.3,7.2-11.3s7,5.6,7,11.2v7.6h-14.2v-7.5Z"/>
    <rect class="st0" x="462.6" y="34.9" width="8.5" height="83.3"/>
    <path class="st0" d="M711.9,157.9c0-.4-.2-.8-.4-1.3-.2-.4-.5-.9-.8-1.2s-.7-.6-1.3-.6-.9,0-1.3.4c-.4.3-.8.6-1.4,1.1l-1.9,1.9c-.7.8-1.6,1.7-2.7,2.7-1.3,1.2-2.7,2.6-4.3,3.9-1.6,1.4-3.2,2.8-5,4.2-1.7,1.4-3.4,2.8-5.1,4.1s-3.3,2.5-4.8,3.6-2.8,2-3.9,2.7c-1.1.8-2,1.3-2.5,1.5-.5-.8-1.1-1.9-1.9-3.3s-1.7-2.9-2.6-4.4c-.9-1.5-1.8-3-2.7-4.5s-1.6-2.7-2.2-3.7c-1.2-2.1-1.8-4.3-1.8-6.8.4-.5,1-1,1.7-1.7.7-.6,1.5-1.3,2.3-2.1s1.2-1.1,1.9-1.7c.7-.7,1.4-1.4,2.1-2.2.7-.8,1.2-1.6,1.7-2.5s.7-1.8.7-2.7,0-2.1-.3-2.9c-.2-.8-.5-1.5-1-2s-1.2-.9-2.1-1.2c-.9-.3-2-.4-3.4-.4s-2.3.4-3.7,1.2-2.8,1.9-4.2,3.2-2.7,2.9-3.8,4.6c-1.1,1.7-2,3.5-2.5,5.2-.5,1.4-.9,2.9-1.2,4.3-.2,1.3-.3,2.5-.3,3.7l-3,3c-2.5,2.5-5.1,4.9-7.7,7.3s-5.4,4.6-8.3,6.7c-1.6,1.2-3.4,2.3-5.4,3.4-2,1.1-4,2-6.1,2.8s-4.2,1.5-6.4,2c-2.1.5-4.2.7-6.1.7s-2.8-.2-4-.6c-1.2-.4-2.2-.9-3-1.5s-1.5-1.4-2-2.2c-.5-.9-.8-1.8-.8-2.7,2.4-1.8,4.6-3.5,6.5-4.9,1.9-1.5,3.7-2.8,5.1-4.1,4.5-3.9,8.1-7.7,10.7-11.4,2.6-3.7,3.8-7.3,3.8-10.8s-.2-3.6-.7-5.3-1.2-3.2-2.2-4.5-2.2-2.3-3.7-3.1-3.3-1.2-5.3-1.2-2.8.2-4.2.6c-1.4.4-2.8,1-4.1,1.7s-2.5,1.5-3.7,2.4c-1.1.9-2.1,1.8-3,2.8-2.3,2.6-4.3,5.3-5.9,8-1.6,2.8-2.9,5.6-3.9,8.4-.4,1-.7,2.1-1,3.1-.4.5-.8.9-1.3,1.4-2.4,2.5-4.9,4.9-7.3,7.1-2.4,2.2-4.8,4.2-7.2,5.8-2.3,1.7-4.6,3-6.7,3.9-2.1,1-4.1,1.4-5.9,1.4s-2.2-.4-3-1.3c-.8-.8-1.5-1.9-2-3.2s-.9-2.7-1.1-4.3c-.3-1.6-.5-3.1-.6-4.7-.3-3-.6-5.7-1.1-8.2s-1.2-4.7-2.1-6.5c-1-1.8-2.2-3.3-3.8-4.3s-3.7-1.5-6.2-1.5-4.1.3-5.8,1c-1.7.6-3.3,1.5-4.8,2.6s-2.8,2.4-4.2,3.9c-1.3,1.5-2.7,3.1-4,4.8-1,1.3-2.1,2.7-3.1,4.2s-2.1,2.9-3.1,4.3c-1,1.4-2,2.7-2.9,4s-1.7,2.2-2.4,3.1c0-.9.3-2,.6-3.3s.7-2.7,1-4.1c.4-1.4.7-2.7,1.1-4,.4-1.3.7-2.3.8-3.1.3-1.2.6-2.4.9-3.3.3-1,.6-1.9.8-2.8.3-.9.5-1.7.6-2.5.2-.8.2-1.7.2-2.6s0-1.9-.4-2.7c-.3-.8-.6-1.4-1-2-.4-.5-.9-1-1.5-1.3-.5-.3-1.1-.4-1.7-.4s-1.3,0-2,0c-.7,0-1.3.3-1.9.5-.6.3-1.2.7-1.8,1.2s-1.1,1.3-1.6,2.2c-.7,1.4-1.3,2.9-1.8,4.5-1.3.4-2.5.6-3.7.8-1.6.3-3.1.4-4.7.4h-5c-1.8,0-3.6-.2-5.7-.7-2.1-.5-4.1-1-6-1.6s-3.5-1.2-4.9-1.8-2.2-1.1-2.5-1.4l-1.2-1.3c-.9-1-1.7-1.9-2.4-2.7-.8-.8-1.6-1.5-2.4-2.1-.8-.6-1.7-1-2.7-1.3s-2.2-.5-3.5-.5-3.3.3-5.1,1-3.5,1.5-5.2,2.7c-1.7,1.1-3.4,2.4-4.9,3.8-1.6,1.4-2.9,2.8-4.1,4.3-2.1,2.5-4,5.1-5.9,7.7-1.9,2.6-3.5,5.2-4.9,7.9s-2.5,5.5-3.4,8.3c-.8,2.9-1.3,5.9-1.3,9s.4,3.5,1.1,5.3c.8,1.8,1.8,3.4,3,4.8,1.3,1.4,2.7,2.6,4.4,3.5,1.7.9,3.4,1.3,5.2,1.3s4.4,0,6.6-.4c2.2-.3,4.3-.7,6.3-1.2s4-1.2,5.8-2,3.5-1.8,5-2.9c1.9-1.4,3.8-3.1,5.6-5s3.5-4,4.9-6.3,2.6-4.6,3.5-7.1,1.3-4.9,1.3-7.4,0-.8,0-1.4,0-1.2,0-1.9c0-.7-.2-1.3-.3-1.9-.2-.6-.3-1.1-.6-1.4,1.1.5,2.3,1,3.5,1.4s2.5.7,3.7,1c1.3.3,2.5.5,3.7.6,1.2.2,2.4.2,3.5.2,3.8,0,7-.4,9.6-1,.4,0,.9-.2,1.3-.4-.2.9-.3,1.9-.5,2.8-.3,2-.6,3.9-.8,5.8-.5,4.1-.7,7.2-.7,9.3,0,8.3,2.4,13,7.3,14,1.2-.4,2.6-1.2,4.1-2.4,1.5-1.1,2.9-2.5,4.4-4s2.9-3.1,4.2-4.7c1.3-1.6,2.5-3.1,3.4-4.4,2.7-3.8,4.9-6.9,6.6-9.2,1.7-2.3,3.1-4.1,4.2-5.3s2-2,2.8-2.4c.7-.4,1.5-.6,2.3-.6s1.7,1.1,2.3,3.2c.6,2.2,1.2,5.1,1.7,8.8.3,2.7.8,5.3,1.5,7.8.6,2.5,1.6,4.7,2.8,6.7,1.2,1.9,2.8,3.5,4.7,4.7s4.3,1.7,7.3,1.7,3.4-.2,4.9-.5,2.9-.8,4.3-1.5c1.3-.6,2.6-1.3,3.9-2.1,1.3-.8,2.6-1.7,3.9-2.6,1.7-1.2,3.5-2.5,5.2-4.1s3.5-3.2,5.1-4.9c.6-.7,1.3-1.3,1.9-2,0,7.5,1.9,13.1,5.6,16.9,3.7,3.8,8.9,5.6,15.5,5.6s6-.5,9.1-1.4,6.2-2.2,9.3-3.8,6.2-3.5,9.2-5.7,5.9-4.6,8.7-7.1c2.8-2.6,5.4-5.3,7.9-8.1.9-1.1,1.8-2.2,2.7-3.2,0,.3.3.6.4.9.3.7.8,1.5,1.5,2.4.6,1,1.3,2,2,3.1s1.4,2.2,2.1,3.4c.7,1.1,1.4,2.2,2,3.2s1.1,1.8,1.4,2.6c.4.7.6,1.2.6,1.5,0,1.2-.2,2.2-.7,3s-1.1,1.5-2,2.2c-.9.6-1.9,1.2-3.1,1.8-1.2.5-2.5,1.1-4,1.7-2.3.9-4.2,1.8-5.9,2.7s-3,1.8-4.1,2.7-1.9,1.9-2.4,3-.8,2.3-.8,3.6,0,1.1.4,1.6c.3.5.7,1,1.3,1.4s1.3.7,2.3,1c.9.3,2.1.4,3.4.4s3.5-.4,5.6-1.3c2.1-.9,4.3-2.1,6.7-3.7.7-.5,2-1.4,3.7-2.8,1.7-1.4,3.8-3,6-4.8,2.3-1.8,4.7-3.8,7.3-5.9s5-4.2,7.4-6.1c2.4-2,4.5-3.8,6.4-5.5s3.3-2.9,4.3-3.9l5.1-5.1c1.7-1.8,3.3-3.6,4.8-5.3,1.4-1.7,2.6-3.4,3.5-5s1.4-2.9,1.4-3.9,0-.3,0-.7l.6.6ZM465.5,165.3v1.4c0,.7-.2,1.4-.3,2.2s-.3,1.5-.5,2.3-.5,1.4-.8,1.8c-.5.9-1.1,1.7-1.8,2.7-.7.9-1.3,1.8-2,2.6s-1.4,1.6-2.1,2.3c-.7.7-1.4,1.4-2.1,1.9-1.5,1.1-2.8,2.1-3.9,2.8-1.1.8-2.1,1.4-3.2,1.8-1,.4-2.2.8-3.4.9-1.2.2-2.7.3-4.5.3s-1.4-.2-1.9-.5-.9-.8-1.2-1.3c-.3-.5-.5-1.2-.7-1.8-.2-.7-.2-1.3-.2-2,0-1.6.2-3.3.5-5.1s.8-3.3,1.4-4.6c.7-1.4,1.4-2.6,2-3.7.7-1.1,1.3-2.2,2-3.2s1.4-2,2.1-3,1.5-1.9,2.3-2.9c.7-.8,1.3-1.7,2.1-2.6.7-.9,1.4-1.8,2.1-2.6s1.3-1.5,1.9-2c.6-.5,1-.8,1.3-.8s.2,0,.4.3.5.5,1,.9c.5.3,1.2.7,2,1.1.9.4,2,.8,3.3,1.1.9.2,1.6.7,2.2,1.4.5.7,1,1.5,1.3,2.4s.5,1.9.6,2.9c0,1,0,2.1,0,3h0ZM602.3,159.8c1.1-2.9,2.3-5.4,3.6-7.5,1.4-2.1,2.8-3.7,4.3-4.8s2.9-1.7,4.2-1.7c.4.2.7.7.8,1.5s.3,1.6.3,2.4c0,2-.5,3.9-1.4,5.7s-2.2,3.5-3.7,5.2c-1.5,1.6-3.2,3.2-5,4.7s-3.7,2.9-5.5,4.3c.5-3.6,1.3-6.8,2.4-9.8h0Z"/>
  </g>
</svg>