<?xml version="1.0" encoding="UTF-8"?>
<svg id="Layer_1" xmlns="http://www.w3.org/2000/svg" version="1.1" viewBox="0 0 839.6 719.2">
  <!-- Generator: Adobe Illustrator 30.5.1, SVG Export Plug-In . SVG Version: 2.1.4 Build 3)  -->
  <defs>
    <style>
      .st0 {
        fill: #850a85;
      }

      .st1 {
        fill: #fff;
      }

      .st2 {
        fill: #524c4b;
      }

      .st3 {
        fill: navy;
      }
    </style>
  </defs>
  <path class="st3" d="M0,203v-3.8c0-25.7,9.2-36.5,29.2-36.5s29.2,10.8,29.2,36.5v3.8c0,25.7-9.2,36.5-29.2,36.5S0,228.6,0,203ZM29.6,223.9c8.5,0,10.4-8.1,10.4-20.9v-3.8c0-12.8-1.8-20.9-10.4-20.9h-1c-8.5,0-10.3,8.1-10.3,20.9v3.8c0,12.8,1.8,20.9,10.3,20.9h1Z"/>
  <path class="st3" d="M103.3,223.9h1c6.4,0,8.5-4.8,8.5-11.4h18v.8c0,19.1-9.4,26.1-27.5,26.1s-28.7-10.8-28.7-36.5v-3.8c0-25.7,8.7-36.5,28.7-36.5s27.5,7,27.5,26.1v3.7h-18.1c0-8.5-1.4-14.2-8.5-14.2h-1c-9,0-10.4,8.1-10.4,20.9v3.8c0,12.8,1.3,20.9,10.4,20.9Z"/>
  <path class="st3" d="M186.2,164l17.7,74.1h-19.3l-3-15h-15.4l-3,15h-19.4l17.7-74.1h24.7ZM169.3,207.5h9.1l-4.6-22.6-4.6,22.6Z"/>
  <path class="st3" d="M216.9,186.5v-1c0-13.8,9.2-22.8,27.1-22.8s27.1,8,27.1,25.9v2h-18c0-8.4-2.4-12.3-9-12.3h-1c-5.2,0-7.8,2.9-7.8,6.7v.4c0,4.6,1.5,6.8,11.5,8.2,16.2,2.2,24.8,7.3,24.8,21.8v1c0,14.5-9.4,23-27.5,23s-27.5-7.5-27.5-26.2v-.8h18c0,8.2,2.8,11.4,9,11.4h1c6.2,0,8.7-3.3,8.7-6.9v-.4c0-4.3-2-6.8-12-8.2-16.1-2.2-24.3-7.3-24.3-21.9Z"/>
  <path class="st3" d="M307.6,238.1h-18v-74.1h18v74.1Z"/>
  <path class="st3" d="M325.9,203v-3.8c0-25.7,9.2-36.5,29.2-36.5s29.2,10.8,29.2,36.5v3.8c0,25.7-9.2,36.5-29.2,36.5s-29.2-10.8-29.2-36.5ZM355.6,223.9c8.5,0,10.4-8.1,10.4-20.9v-3.8c0-12.8-1.8-20.9-10.4-20.9h-1c-8.5,0-10.3,8.1-10.3,20.9v3.8c0,12.8,1.8,20.9,10.3,20.9h1Z"/>
  <path class="st2" d="M121.5,291.4h-3.9v-18.7h6.1c3,0,6.5.8,6.5,5.8v.5c0,3-1.3,4.5-3,5.2l3,7.3h-4.2l-2.6-6.7h-2v6.7ZM123.9,281.3c1.2.1,2.3-.8,2.4-2,0-.2,0-.4,0-.6v-.2c.2-1.2-.6-2.3-1.8-2.5-.2,0-.4,0-.6,0h-2.4v5.3h2.4Z"/>
  <path class="st2" d="M147.5,272.6v3.3h-7.6v4.1h6.4v3.4h-6.4v4.5h7.6v3.4h-11.5v-18.7h11.5Z"/>
  <path class="st2" d="M157.1,291.4h-3.9v-18.7h6.1c3,0,6.5.8,6.5,5.8v.5c0,5-3.5,5.8-6.5,5.8h-2.2v6.7ZM159.5,281.3c1.2.1,2.3-.8,2.4-2,0-.2,0-.4,0-.6v-.2c.2-1.2-.6-2.3-1.8-2.5-.2,0-.4,0-.6,0h-2.4v5.3h2.4Z"/>
  <path class="st2" d="M175.2,291.4h-3.9v-18.7h6.1c3,0,6.5.8,6.5,5.8v.5c0,3-1.3,4.5-3,5.2l3,7.3h-4.2l-2.6-6.7h-2v6.7ZM177.6,281.3c1.2.1,2.3-.8,2.4-2,0-.2,0-.4,0-.6v-.2c.2-1.2-.6-2.3-1.8-2.5-.2,0-.4,0-.6,0h-2.4v5.3h2.4Z"/>
  <path class="st2" d="M201.2,272.6v3.3h-7.6v4.1h6.4v3.4h-6.4v4.5h7.6v3.4h-11.4v-18.7h11.4Z"/>
  <path class="st2" d="M206.6,278.2v-.3c0-3.4,2.3-5.6,6.6-5.6s6.6,2,6.6,6.4v.5h-3.9c0-2.5-.7-3.6-2.7-3.6h-.2c-1.6,0-2.5.9-2.5,2.1h0c0,1.5.5,2.2,3.3,2.6,4.1.5,6.1,2,6.1,5.4v.2c0,3.6-2.4,5.7-6.8,5.7s-6.8-2-6.8-6.5v-.2h3.9c0,2.3,1,3.3,2.8,3.3h.2c1.8,0,2.7-1,2.7-2.2h0c0-1.5-.7-2.2-3.4-2.6-4.1-.5-6-2-6-5.4Z"/>
  <path class="st2" d="M237.1,272.6v3.3h-7.6v4.1h6.4v3.4h-6.4v4.5h7.6v3.4h-11.5v-18.7h11.5Z"/>
  <path class="st2" d="M256.6,291.4h-4.1l-6-11.6v3.8c.1,0,.1,7.8.1,7.8h-3.7v-18.7h4.1l6,11.6v-3.8c-.1,0-.1-7.8-.1-7.8h3.7v18.7Z"/>
  <path class="st2" d="M270,291.4h-3.9v-15.4h-4.3v-3.4h12.5v3.4h-4.3v15.4Z"/>
  <path class="st2" d="M283.6,291.4h-3.9v-18.7h3.9v18.7Z"/>
  <path class="st2" d="M303.6,291.4h-4.1l-6-11.6v3.8c.1,0,.1,7.8.1,7.8h-3.7v-18.7h4.1l6,11.6v-3.8c-.1,0-.1-7.8-.1-7.8h3.7v18.7Z"/>
  <path class="st2" d="M309.3,282.5v-1c0-6.5,2.3-9.2,7.2-9.2s6.8,1.9,6.8,6.5v.9h-3.9c0-2.6-.6-4.1-2.7-4.1h-.2c-2.6,0-3.2,2.1-3.2,5.8v1c0,3.8.6,5.8,3.4,5.8h.2c.9,0,1.8-.2,2.5-.7v-3h-2.5v-3.4h6.4v8.3c-1.8,1.5-4.2,2.3-6.5,2.2-5.1,0-7.4-2.7-7.4-9.2Z"/>
  <path class="st2" d="M351.3,291.4h-4.1l-6-11.6v3.8c.1,0,.1,7.8.1,7.8h-3.7v-18.7h4.1l6,11.6v-3.8c-.1,0-.1-7.8-.1-7.8h3.7v18.7Z"/>
  <path class="st2" d="M369,272.6v3.3h-7.6v4.1h6.4v3.4h-6.4v4.5h7.6v3.4h-11.5v-18.7h11.5Z"/>
  <path class="st2" d="M384.6,277.1l-2.7,14.3h-5l-3.1-18.8h4l1.8,13.5,2.5-13.5h4.8l2.5,13.5,1.8-13.5h4l-3.1,18.8h-5l-2.7-14.3Z"/>
  <path class="st2" d="M416.7,291.4h-3.9v-5.7l-5.4-13h4.2l3.1,8.2,3-8.2h4.2l-5.3,13v5.7Z"/>
  <path class="st2" d="M426,282.5v-1c0-6.5,2.3-9.2,7.1-9.2s7.2,2.7,7.2,9.2v1c0,6.5-2.3,9.2-7.2,9.2s-7.1-2.7-7.1-9.2ZM433.3,288.3c2.4,0,3.1-2.1,3.1-5.8v-1c0-3.7-.7-5.8-3.1-5.8h-.2c-2.4,0-3.1,2.1-3.1,5.8v1c0,3.8.7,5.8,3.1,5.8h.2Z"/>
  <path class="st2" d="M450,291.4h-3.9v-18.7h6.2c3,0,6.5.8,6.5,5.8v.5c0,3-1.3,4.5-3,5.2l3,7.3h-4.2l-2.6-6.7h-2v6.7ZM452.4,281.3c1.2.1,2.3-.8,2.4-2,0-.2,0-.4,0-.6v-.2c.2-1.2-.6-2.3-1.8-2.5-.2,0-.4,0-.6,0h-2.4v5.3h2.4Z"/>
  <path class="st2" d="M468.4,280l4.6-7.3h4.7l-5.2,7.5,5.2,11.2h-4.3l-3.4-7.7-1.6,2.2v5.4h-3.9v-18.7h3.9v7.3Z"/>
  <path class="st2" d="M486.8,275.8c0,2.8-1.4,4.3-4.1,4.3v-1.9c1,0,1.9-.6,2.1-1.5h-2v-4h4v3.2Z"/>
  <path class="st2" d="M492.5,278.2v-.3c0-3.4,2.3-5.6,6.6-5.6s6.6,2,6.6,6.4v.5h-3.9c0-2.5-.7-3.6-2.7-3.6h-.2c-1.6,0-2.5.9-2.5,2.1h0c0,1.5.6,2.2,3.3,2.6,4.1.5,6.1,2,6.1,5.4v.2c0,3.6-2.4,5.7-6.8,5.7s-6.7-2-6.7-6.5v-.2h3.9c0,2.3,1,3.3,2.8,3.3h.2c1.8,0,2.7-1,2.7-2.2h0c0-1.5-.7-2.2-3.4-2.6-4.1-.5-6-2-6-5.4Z"/>
  <path class="st2" d="M519.8,291.4v-3.4h4.1v-10.6l-3,2-1.9-2.8,5.8-4h2.9v15.4h4.1v3.4h-12Z"/>
  <path class="st2" d="M544.1,291.4v-4.1h-7.2v-2.7l7.4-12h3.6v11.3h2v3.4h-2v4.1h-3.8ZM540.9,284h3.2v-5.2l-3.2,5.2Z"/>
  <path class="st2" d="M562.8,291.4h-3.9v-15.4h-4.3v-3.4h12.6v3.4h-4.3v15.4Z"/>
  <path class="st2" d="M585.6,272.6v18.7h-3.9v-7.9h-5.5v7.9h-3.9v-18.7h3.9v7.5h5.4v-7.5h3.9Z"/>
  <path class="st2" d="M605.8,291.4h-5.7v-18.7h5.7c5.6,0,7.9,2.4,7.9,8.9v1c0,6.5-2.3,8.8-7.9,8.8ZM605.5,288c3.2,0,4.2-1.8,4.2-5.5v-1c0-3.7-.9-5.5-4.2-5.5h-1.6v12h1.6Z"/>
  <path class="st2" d="M623.4,291.4h-3.9v-18.7h3.9v18.7Z"/>
  <path class="st2" d="M629.3,278.2v-.3c0-3.4,2.3-5.6,6.6-5.6s6.6,2,6.6,6.4v.5h-3.9c0-2.5-.8-3.6-2.7-3.6h-.2c-1.6,0-2.5.9-2.5,2.1h0c0,1.5.6,2.2,3.3,2.6,4.1.5,6.2,2,6.2,5.4v.2c0,3.6-2.4,5.7-6.8,5.7s-6.7-2-6.7-6.5v-.2h3.9c0,2.3,1,3.3,2.8,3.3h.2c1.8,0,2.7-1,2.7-2.2h0c0-1.5-.7-2.2-3.4-2.6-4.1-.5-6-2-6-5.4Z"/>
  <path class="st2" d="M655.6,291.4h-3.9v-15.4h-4.3v-3.4h12.6v3.4h-4.3v15.4Z"/>
  <path class="st2" d="M669,291.4h-3.8v-18.7h6.1c3.1,0,6.5.8,6.5,5.8v.5c0,3-1.3,4.5-2.9,5.2l2.9,7.3h-4.2l-2.6-6.7h-2v6.7ZM671.5,281.3c1.2.1,2.3-.8,2.4-2,0-.2,0-.4,0-.6v-.2c.2-1.2-.6-2.3-1.8-2.5-.2,0-.4,0-.6,0h-2.4v5.3h2.4Z"/>
  <path class="st2" d="M687.6,291.4h-3.9v-18.7h3.9v18.7Z"/>
  <path class="st2" d="M700.5,288.3h.2c1.9,0,2.6-1.3,2.6-3.3h3.9v.2c0,4.6-2.3,6.5-6.7,6.5s-7-2.7-7-9.2v-1c0-6.5,2.2-9.2,7-9.2s6.7,1.9,6.7,6.5v.9h-3.9c0-2.6-.6-4.1-2.6-4.1h-.2c-2.5,0-3.1,2.1-3.1,5.8v1c0,3.8.6,5.8,3.1,5.8Z"/>
  <path class="st2" d="M719.9,291.4h-3.9v-15.4h-4.3v-3.4h12.6v3.4h-4.3v15.4Z"/>
  <path class="st3" d="M472.2,224.2h1c6.4,0,8.5-4.8,8.5-11.4h18v.8c0,19.1-9.4,26.1-27.5,26.1s-28.7-10.8-28.7-36.5v-3.8c0-25.7,8.7-36.5,28.7-36.5s27.5,7,27.5,26.1v3.7h-18c0-8.5-1.4-14.2-8.5-14.2h-1c-9,0-10.4,8.1-10.4,20.9v3.8c0,12.8,1.3,20.9,10.4,20.9Z"/>
  <path class="st3" d="M516.1,203.3v-3.8c0-25.7,9.2-36.5,29.2-36.5s29.2,10.8,29.2,36.5v3.8c0,25.7-9.2,36.5-29.2,36.5s-29.2-10.8-29.2-36.5ZM545.8,224.2c8.6,0,10.4-8.1,10.4-20.9v-3.8c0-12.8-1.8-20.9-10.4-20.9h-1c-8.6,0-10.3,8.1-10.3,20.9v3.8c0,12.8,1.8,20.9,10.3,20.9h1Z"/>
  <path class="st3" d="M610.4,238.4h-18.1v-74.1h25.6c12.5,0,26.7,2.8,26.7,23.4v1.9c0,12.1-4.8,18-11.4,20.9l11.4,27.9h-19.5l-9.7-25.5h-5v25.5ZM618.6,197.4c3.5,0,7.7-1.3,7.7-8.4v-.8c0-7-4.2-8.4-7.7-8.4h-8.3v17.5h8.3Z"/>
  <path class="st3" d="M692.4,238.4h-18.1v-58.5h-16.6v-15.6h51.3v15.6h-16.6v58.5Z"/>
  <path class="st3" d="M771.7,164.3v15.6h-28.5v12.9h23.8v15.6h-23.8v14.4h28.5v15.6h-46.6v-74.1h46.5Z"/>
  <path class="st3" d="M816.6,179.5l-14.1.4h-12.3v-15.6h48.4v12.3l-27.4,46.5,14.1-.4h14.2v15.6h-50.4v-12.3l27.4-46.5Z"/>
  <path class="st0" d="M401.1,201h10.8l3.3-10.3,3.3,10.3h10.8l-8.7,6.3,3.3,10.2-8.7-6.3-8.7,6.3,3.3-10.2-8.7-6.3Z"/>
  <path class="st0" d="M428.1,120.5c3.9-.8,6.5-3.9,9.7-5.8,7-4.2,13.6-8.9,21.5-11.3,3.2-1,5.8-.9,8.3,1.8,1.6,6.9-2.4,13.3-2.7,20.3,5.4.9,10-.6,14.5-2.2,8.6-3.1,16.8-7.3,24.3-12.4,6.7-4.5,13.5-8.7,22.2-7,3.5-2.8,6.7-6,9.4-9.6,22.3-29.8,45.8-58.7,72.7-84.5,4-3.9,8.1-7.9,13.6-9.7,2.3.5,4.1,1.6,4.7,4.5-2.2,6.3-7.1,11.1-11.5,16.2-24.2,27.6-50.5,53.3-77.1,78.7-3.8,3.7-7.8,7.4-7,13.4-5.8,2.2-9.8,9.6-8,15.2,4.3,1.7,8.7.7,13-.4,27.3-7,49.1-22.8,68-42.8-.1-.6-.1-1-.3-1.2-7.4-6.9-7.5-9.2.2-16.1,6.1-5.5,12.6-10.9,21.2-10.9,3.7,2.4,3,5,1.5,7.7-3.1,5.5-7.2,10.3-11.3,15.1-1.2,1.4-2.4,2.7-3.6,4.1,2,3.6,6.3,5.4,7.2,9.9-1.1,5.9-5.2,10.4-9.2,14.7-9.8,10.3-19.9,20.5-29.8,30.8-2.9,2.9-5.4,6.4-7.1,10.2-1,2.2-2.5,4.5-.2,7.1,4.2,1,8-.7,11.8-2.2,19-7.5,35.9-18.6,52.8-29.9,9.7-6.4,19.8-12.2,27.1-21.2,1.5.2,2.9,1.2,3.4,2.7-5.2,7.5-13.5,13.1-15.2,22.7,1.8,2.7,3.8,2,5.8,1.6,14.3-3.5,27.3-10.3,40-17.5,4.4-2.6,9-4.9,13.8-6.7,4.6-1.6,9.1-1.9,13.2,1.8l8.6-5.4c1.8.1,3.3,1.4,3.7,3.1-2.6,7.5-11.2,13.1-9.4,22.7,5.2,2.1,9.8.7,14.4-.7,11.8-3.6,22.9-8.9,33.1-15.8q3-2,5.6.3c-.1,1.5-1.3,2.2-2.4,2.9-12.9,8.3-26.6,15-41.7,18.3-4.4,1-8.7.6-12-2.9-3-3.3-2.1-7-.8-10.8.4-1.1,1-2.1,1.4-3.2.4-.9.7-1.8,1.7-4-4.8,3.4-8.5,6-12.2,8.5-6,4.1-12,8.4-18.9,11-7.2,2.7-10.2.9-10.7-6.9-6,2.4-12,4.8-18,7.1-2,.8-4.1,1.4-6.2,2-9.7,2.6-14.2-1.2-12.8-11.1-2.3.4-3.8,2-5.5,3.1-17.5,11.5-35,23-54.3,31.3-4,1.7-8,3.2-12.4,3.5-7.4.4-11-4-8.7-11,1.3-4.2,4-7.7,6.7-11,9.4-11.7,20.9-21.4,31-32.4,3.8-4.2,8.6-8,9-14.2-1.3-2.3-3.5-4.1-6.1-4.8-8.8,8.7-17.6,17.5-27.8,24.7-14.6,10.5-31.3,17.8-48.9,21.3-10.6,2-15.6-4-11.9-14.1.3-1,.8-1.8.3-2.8,0,0,.2.2.2.2h-.2c-5.3,4.1-10.6,8.4-15.9,12.6-1.4,1.2-3,2.1-4.7,2.9-4.4,1.8-7.6-.8-6.9-5.6.2-1.1,1.2-2.1.2-3.5-6.5,2.7-13,5.5-20,7-9.3,2-13.1-1.7-11-10.8.8-3.7,1.7-7.3,2.6-11-3-1.6-5.1,0-7.3,1-12.1,5.6-22.7,13.8-33.5,21.4q-3.2,2.3-6.6.8c-1.7-3.8,2.5-6,3.3-9.8-8.7,3.7-16.6,7.9-25.3,10.1-3.4.8-6.7,2-10.3,1.6-6.7-.7-10.1-5.3-8.3-11.8.8-2.8,2-5.5,3.3-9.2-6,4.1-11.2,7.8-16.5,11.3-4.5,3-9.1,6-14.3,7.9-6.5,2.4-9.1,1.2-11.2-5.2-14.3,4.3-28.3,16.1-44.2,2.3-4.1,3.3-7.1,8.1-10.5,12.3-1.7.8-2.9.4-4-1.5,2.9-6,8.1-10.5,12.4-16.2-.3-2-.7-4.2-1.1-6.5-2.6-.4-4.1,1.5-5.9,2.4-12.5,6.7-25.3,12.4-39.5,14.2-2.3.2-4.6.2-6.9-.2-5.7-.8-7.7-3.5-8.5-11.8-7.9,4.4-15.7,8.8-23.5,13-7,3.8-14.2,7.3-21.9,9.3-10.5,2.7-15.9-2.8-13.1-13.2,2.1-7.8,6.7-14.4,11-22-11.6-1.8-22.8-1-34.3-2.3-8.2,12.2-18.7,22.8-22.8,37.4-3.1-1.5-3.8-3.2-2.3-7.3,1.8-4.6,4.2-9,7.2-13,3.7-5.3,7.4-10.6,12.1-17.4-8.5,0-15.8,0-23.1,0-4.8,0-9.7.8-14.4.3-7.2-.7-12.8,1.8-18,6.4-7.7,6.8-15.8,13.2-23.8,19.7-1,.8-1.9,1.9-3.7,1.9-3.1-1.9-1.3-3.6.6-5.1,6.9-5.8,13.8-11.5,20.7-17.2,1.3-1.1,3.2-1.8,3.8-4.3-9.3.6-18.5,1.8-27.6,3.7-1.6-.6-2.5-1.5-1.8-3.5.3-.2.7-.7,1.1-.8,11.1-2.1,22.3-3.5,33.5-4.1,2.5-.1,4.3-1.3,6.2-2.7,24.1-17.8,48.3-35.3,74.8-49.4,4.2-2.3,8.7-4.2,13.3-5.5,2.4-.7,5-1.1,6.8,1.5,1.6,2.4.2,4.4-1.1,6.4-8.5,12.1-18.1,23.4-27.2,35-3.5,4.4-6.9,8.9-11,14.2l34.2,1.8c4-5.1,8-10.4,12.2-15.5,23.8-29.2,50-56,80.3-78.7,5.8-4.4,11.9-8.5,19.2-9.9,7.1,1.9,8.9,5.4,5.2,11.5-7,11.7-16.7,21.1-26.5,30.3-27.8,26.3-57.7,50.2-89.4,71.6-8.2,5.5-10.9,15.3-11.5,25.1,3.7,3.4,7.1,1.3,10.2.3,10.5-3.4,20.2-8.5,29.7-14,9.1-5.2,17.9-10.9,26.3-17.1,3.2-2.4,6.5-4.5,10.9-4.2,2.2.2,3.9,1,4.8,3s.2,3.8-1.4,5.4c-2.7,2.8-6.5,4.2-10.4,3.8-1.7,0-3.3-.3-5-.5-3.1,2.9-5.2,6.7-5.7,10.9,2.8,4.4,7.2,3.9,11.1,3.2,15.2-3,29.6-8.9,42.6-17.3,2-1.2,2.5-3.4,4.3-5,5.2,2.7,1.2,8,3.4,11.7,2.7-.6,4-3.1,6-4.6,4.5-3.4,8.8-7,13.3-10.5,1.9-1.5,3.8-2,5.5,1.3-7.8,6.4-16.2,12.1-23,19.8,1.4,4.4,4.7,5.8,8.7,6,10.6.5,19.7-3.8,28.8-8.4s17.3-11.1,26.8-15.3c5.6-2.5,11.3-4.2,16.8.5l8.2-5.3c2,0,3,1,3.9,2.6-2.5,7.7-11.1,13.3-9.6,22.9,3.8,2.1,7.4,1.5,10.8.5,17.8-5.1,34.4-12.2,47-26.5,2.6-2.8,5.4-5.4,8.5-7.7,2.3-1.9,2.5-1.8,5.1.8-.8,2.3-3.2,3.3-4.8,4.8-6.8,6.5-13.9,12.7-18.8,20.9l-1.1.9h-.3c0,.1.1-.1.1-.1.6.2,1.1.1,1.3-.7ZM560.8,69.5c.8.1,1.1-.2,1-.9,1.2,0,1.7-.8,2.4-1.5,15-15,29.9-30.1,44.2-45.9,4.4-4.9,9.5-9.2,12.3-15.4l.2-.2c0,.1,0,.2,0,.4-4.2.3-6.4,3.7-9.1,6.2-14.5,13.7-27.7,28.7-40.5,44-3.3,4-7.6,7.4-9.5,12.5-.8-.1-1,.3-1,1l-1.2.9-1,1.1h-.3c0,.1.1-.1.1-.1.6-.1,1-.5,1-1.1.9.2,1.3,0,1.3-.9h0ZM519.9,108.5c-10.1,2-18.7,8.7-23,18.1,0,.2.2.5.5,1,3.7-1.2,6.4-3.9,9.2-6.4,4.5-4.2,10.3-7.1,13.3-12.8l.2-.2v.3ZM192.4,102.9c1.9-1.2,3.9-2.4,5.8-3.8,21.5-15.3,42.2-31.9,61.7-49.6,12.1-10.9,24.2-21.9,34.1-34.9,2.1-2.8,4.8-5.5,4.2-9.6-3.1-.9-5.5.4-7.8,1.5-4.5,2.2-8.7,4.9-12.6,8-25.6,19.4-48,42-69,66.1-6.1,6.9-12.1,14-16.4,22.3h0ZM185.4,49.9c-12.2,1.3-80.1,44.1-83.8,52.1h42.7l41.1-52.1ZM341.9,129.2c12.9-4.2,22-12.1,32.5-19.4-9.1-2.8-28.8,9-32.5,19.4ZM689.4,129.1c12.9-4,21.9-12,32.2-19-7.9-3.7-28.1,8.2-32.2,19ZM607.2,81.1c5.7-6,11.3-11.8,14.8-19.3-8.3,3.2-15.4,7.8-20.2,15.1,1.4,1.9,3.3,3.3,5.4,4.2h0ZM243.7,111.4c3.6.4,5.9-.1,7.6-3.6-3,.3-5.2.9-7.6,3.6Z"/>
  <path class="st0" d="M673.5,99.5c-1.4.4-2.9-.3-3.5-1.6.5-2.5,2.6-4.2,4-5.9,2.1-.4,2.8.8,3.5,1.9-.8,2.4-2.5,3.9-4,5.6Z"/>
  <path class="st0" d="M214.6,584.1c-.6-2.6.8-4.8,2.2-6.7l-10-.3-17.8.3-21.1.2c-.5,2.8,0,5.8,1.8,8.3,2.7,3.7,3.2,8.3,1.5,12.5-2.3,5.6-7.8,8.2-13.6,6.7-3.4-.8-6.2-2.4-7.7-5.7l-2.3-5c-1-2.1-2.1-4.1-3.7-5.8-3.2-3.3-7.8-4.3-11.9-2.5s-6.5,5.9-6.1,10.6c.7,7.6,5.9,14.8,11.9,19.4,4,3,7,.5,8.7,1.4s1.3,2.8.4,3.7-2.7,1.2-4.2,1.1c-5.2-.5-9.6-3.2-13-7.2l-2,14.2-1.3,3.2-3.1,6.2-3.5,5.2c-1.1,1.7-2.7,3-4.2,4.3l10,.3c-.2,1.2-1,2.1-1.9,2.8h-11.6c0-.1-.5,3.8-.5,3.8l13.6.3-.4,2.2h-14.1c0,.1-2.6,7-2.6,7l27,.4c0,.8,0,1.6-.4,2.4l-7.9.6h-19.9c0-.1-2.6,6.8-2.6,6.8h23.9c.6.2,1.5.9,1.9,1.4-.1.5-.9,1.7-1.4,1.7l-26.3.2-4.3,6.5h25.6c.7,0,1.9.4,2.1,1s-.5,1.7-1.1,2.1h-29.1s-2.7,4-2.7,4c-.5.7-2.3.9-3,.5-1.2-.6-1.4-2.2-.6-3.2l4-5.5c1.9-2.7,4.4-5,5.6-8.2l5.9-15.3c1.3-3.3,2.2-6.7,2.7-10.2-1.6-.5-3.4-.8-4.5-2.1-4.4-4.9-7.1-10.8-8.4-17.4l-2.1,2.2c-4.6-4-8.7-10.2-8.7-16.1-.9.4-2,.8-2.7.7-1.6-.3-2.9-3-3.3-4.8l-1.6-7.6-2.2,2.6c-1.3-4.8-2.5-9.1-4.3-13.5l-2-14.5-3.1,6.6c-.2.5-.8,1.1-1.3,1.5-.9-.5-1.5-1-2.3-1.7-1.7-9.8-1.5-19.8,1.9-29.2,2.2-6.2,5.5-11.6,8.7-17.4-3.1,1.5-6.6,2.4-9.9.7,1.8-.5,3.1-1,4.2-2.3l3.7-4.3c1.1-1.3,2.4-2.5,2.9-4.1,3.9-11.5,11.7-19.5,23.5-22.6,5.2-16.1,23.1-24.9,39.2-26.3s11.5-1.4,16.9-3.8,3.6-4.9,5.7-3.5.6,1.7.3,2.4c-1,2.7-2.9,4.4-5.3,5.9l21-1.4,5.3-.2,2.4-3c.8.7,1.2,2.5.5,3.2l-5.3,4,6.9-.5c4.7-.3,9.2-.2,13.7,1.1l13,3.9c3.1.9,6.2,1.1,9.2,2.3s5.4,2.6,7.1,5.1l1.8,3.2c3.2.1,6.3.6,9.1,2.3l7.7,4.7c2.7,1.7,5.4,3.2,8.4,4.2l.7.2c.1,0-.2.5-.3.5l-.6.2,3.5,1c-1.3,2-3.5,2.3-5.8,2,11,9.4,16.4,21.7,11.8,36-1.1-.4-2.7-.5-3.4-1.1l-5.2-4.1-.2,4h-2.7c0,0-.9-3.3-.9-3.3l-3.1,10.3c-.3,1.1-.5,1.3.2,2.3,1.5,2,1.9,4.6,2.3,7l.3,10.3c.2.5,1.2,1.6,1.7,1.4l3.3-.8c.4,1.3.2,3.1-.8,3.8l-4.7.2-.5,5.2,11.4,16.4c1.9,2.8,2.8,8,.7,10.5l-8.3,10c-1.3,2.6-1.4,5.9-1.7,8.8-.6,5.6-1.2,11-2.5,16.5l-4,12.6c-1.4,5.5-3.2,10.6-6.2,15.3-2.1,3.2-4.7,5.6-8.3,6.9-12.3,4.5-29.6.3-42.1-3.7-2,2.2-4.3,4.1-5.6,6.8-4.8,9.5-6.8,19.9-6.7,30.5,0,1.4-.1,2.8-1.7,3.4s-2.7-.4-3-1.4c-.7-9.6.8-18.9,3.9-28,1.6-4.9,4-9.1,7.5-13.2l-9.1-3.7c-1-.4-1.7-2-1.4-3s1.8-2.1,3-1.7l17.4,6.2c10.3,3.1,22.8,5.7,33.3,3.9,6.7-1.2,10.8-8,12.9-14.3l4.9-14.8-11.2-4.6c0-.9.1-1.9.4-2.8,1.4-.8,2.5-.6,3.9-.1l7.9,2.6,2.5-18.4c.5-3.4,1.6-6.4,3.9-8.9l5.6-6.2c1.6-1.8,1.5-4.1.4-6.2l-8.4-12.5-.6-.4v.2c-.1,0-2.5,9.8-2.5,9.8-.8,3.4-3,7.1-6.2,6.5s-3.7-5.8-3.6-9.1l.3-5.9,1.7-14.8-7.6-.5-6.9-.5h-.3c2.3,4.4,3.1,12.8-.7,15.2-1.3.8-3.3.6-4.4-.6s0-1.5.3-1.9,1.5-.6,2.5-.3c.9-3.5.9-7.3-.8-10.7-1.6,2.4-1.7,5-1.2,7.6l-2.8,2.2-1-4.7ZM130.3,513c9.9-11.8,18.4-20.8,33.9-23.6-8.8-1.5-18.7,4.4-24.5,10.7-3.6,4-6.9,8.1-9.4,12.8ZM93.2,540.9c2.2-2.3,3.8-5.1,4.8-8.2l2-8.3c2.2-11.8,9.2-21.7,19.6-27.8-14.4,4.5-20.9,17-22.6,31.4-.9,4.4-2.3,8.4-3.8,12.9ZM159.2,523.6l10.4-14c4.9-6.6,11.4-10,19.2-12.4-3.2-.2-6.2.4-9.2,1.8-7.7,3.6-12.1,8.8-16.8,15.7-8.2,12.1-16.1,19.2-29.5,25.2,10.4-1.8,18.9-8.6,26-16.3ZM195.9,524.5l1.4-5.7c1.5-6.1,5.1-11,10.1-14.9-5.4.1-10.3,8.5-11.3,13.5l-3,14.3c1.5-2.3,2.2-4.6,2.9-7.2ZM235.7,519.4l-3.5-4.8c-1.7-2.3-4-4.2-6.6-5.3l6.7,7.3c2.1,2.8,3.3,6.1,4.9,9.4.4-2.3-.1-4.6-1.5-6.6ZM223.1,569.8l-5.4,1.7,6.6.6,1.3-1.6c.8,1.3,1.5,1.4,2.7,1.5l10,.6,2.4-11.9c.6-3.1,1.2-5.8,2.6-8.6s1.6-4.9.8-7.5l-3.7-11.4-.7,7.1c-.3,2.7-1,5.6-2.6,7.7l-6.1,7.9c.6,1.1,1.2,2.2,1.3,3.5,0,1.1-1.6,2.3-2.7,2-4.4-1.3-8.8-1.5-13.1.1l-7.7,2.9c-.6.2-1.7-1-1.8-1.6s.1-1.9.7-2.3c5.3-3.7,13.6-6.7,20.3-5.9l.3-4.6c1.1-7.7-1.5-12.6-5.1-19v7c-.4,3.6-1.9,6.7-4.3,9.3l-2.7.4c-.2-1.3.1-2.1.6-3.2,1.6-3.9,1.6-8.3.5-12.6-3,8.8-6.7,18.7-13.9,24.6-1.4,1.2-3.3,2-4.1,1.2s-.5-1-.3-1.4l1.5-4.1c.8-2.2,1.6-4.3,1.7-6.7l-5.6,6.9c-.8,1-1.8,1.9-2.4,3.1-2.1,4.3-5,9.6-9.9,8.5l1.5-3.5c1.3,0,2.1,0,2.8-.7s.8-1.3.8-2.4l-8.5,2.9c.7,4.7-1.7,8.1-4.8,11.1l39.1-.2,2.6-1.4c1.7-.9,3.6-1.5,5.5-.3ZM74,558.6l10.6-9.1-7.8,4.7c-.8.5-2.3.5-3.4.7l10.1-21.8c-2.6,2-4.3,4.8-5.8,7.7l-7.4,14c-2.7,5.1-4.5,10.4-5.2,16.2,2-4.8,5-8.7,8.9-12.4ZM240.8,600.7l4.4-23.6c.8-4.3.2-8.5-.2-12.7-2.8,11.8-4.8,24.2-4.2,36.3ZM239.8,589.9c.7-1.3.6-2.5.5-3.8l-3,1.4-.2,4.1,2.7-1.6Z"/>
  <path d="M252.9,552.2c-.5,1.9-2,3.5-4.5,2.9l1.6-3.9,2.9,1Z"/>
  <path class="st1" d="M223.1,569.8c-1.9-1.2-3.8-.6-5.5.3l-2.6,1.4-39.1.2c3.1-3,5.5-6.3,4.8-11.1l8.5-2.9c0,1.2-.2,2-.8,2.4s-1.5.7-2.8.7l-1.5,3.5c4.9,1,7.8-4.3,9.9-8.5s1.6-2.1,2.4-3.1l5.6-6.9c0,2.4-.9,4.4-1.7,6.7l-1.5,4.1c-.1.3.1,1.2.3,1.4.9.8,2.7,0,4.1-1.2,7.2-5.9,10.9-15.8,13.9-24.6,1.1,4.3,1.2,8.7-.5,12.6s-.8,1.9-.6,3.2l2.7-.4c2.5-2.6,3.9-5.7,4.4-9.3v-7c3.6,6.4,6.2,11.3,5.1,19l-.3,4.6c-6.7-.8-15,2.2-20.3,5.9-.6.4-.8,1.7-.7,2.3s1.2,1.8,1.8,1.6l7.7-2.9c4.3-1.6,8.7-1.4,13.1-.1s2.7-.9,2.7-2c0-1.3-.7-2.4-1.3-3.5l6.1-7.9c1.7-2.2,2.3-5,2.6-7.7l.7-7.1,3.7,11.4c.8,2.6.4,5.1-.8,7.5s-2,5.6-2.6,8.6l-2.4,11.9-10-.6c-1.2,0-1.9-.2-2.7-1.5l-1.3,1.6-6.6-.6,5.4-1.7Z"/>
  <path class="st1" d="M159.2,523.6c-7.1,7.6-15.6,14.5-26,16.3,13.4-6,21.3-13.1,29.5-25.2,4.7-6.9,9.1-12,16.8-15.7s6-2,9.2-1.8c-7.8,2.4-14.3,5.8-19.2,12.4l-10.4,14Z"/>
  <path class="st1" d="M74,558.6c-3.9,3.7-6.8,7.6-8.9,12.4.6-5.8,2.5-11.1,5.2-16.2l7.4-14c1.5-2.9,3.2-5.6,5.8-7.7l-10.1,21.8c1.1-.1,2.6-.2,3.4-.7l7.8-4.7-10.6,9.1Z"/>
  <path class="st1" d="M93.2,540.9c1.4-4.5,2.8-8.5,3.8-12.9,1.8-14.5,8.3-26.9,22.6-31.4-10.3,6.1-17.3,16-19.6,27.8l-2,8.3c-1.1,3.1-2.7,5.9-4.8,8.2Z"/>
  <path class="st1" d="M240.8,600.7c-.6-12.1,1.4-24.4,4.2-36.3.4,4.2,1,8.4.2,12.7l-4.4,23.6Z"/>
  <path class="st1" d="M130.3,513c2.5-4.7,5.8-8.8,9.4-12.8,5.8-6.3,15.6-12.3,24.5-10.7-15.5,2.8-23.9,11.8-33.9,23.6Z"/>
  <path class="st1" d="M195.9,524.5c-.6,2.6-1.4,4.9-2.9,7.2l3-14.3c1-4.9,6-13.3,11.3-13.5-5,3.8-8.6,8.8-10.1,14.9l-1.4,5.7Z"/>
  <path class="st1" d="M235.7,519.4c1.4,1.9,2,4.3,1.5,6.6-1.6-3.3-2.8-6.5-4.9-9.4l-6.7-7.3c2.6,1,4.9,2.9,6.6,5.3l3.5,4.8Z"/>
  <path class="st1" d="M239.8,589.9l-2.7,1.6.2-4.1,3-1.4c.2,1.3.3,2.5-.5,3.8Z"/>
  <g>
    <path class="st0" d="M328.7,554.5h8.9v12.7c0,10.2-1.2,16.9-8.6,16.9s-7.9-5-7.9-12.9v-41.1c0-9.1,2.8-12.6,8.3-12.6s8,6.4,8,12v2.2h8.5v-2c0-10.1-2.5-20-16.4-20s-17,8-17,21.1v39.9c0,12.8,3.6,20.9,14.6,20.9s9.7-2.1,11.7-8c0,1.8.3,5.6.5,6.9h6.7v-43.6h-17.4v7.4Z"/>
    <path class="st0" d="M384.9,544.5c0-9-3.3-15.6-13.9-15.6s-14.7,7.2-14.7,15.7v1.5h8.4v-1.6c0-4.8,1.3-8.4,6-8.4s5.7,3.5,5.7,9v9.6h-2.6c-10.8,0-19.4,4.9-19.4,18.6v1.1c0,9.4,3.5,17.2,12.3,17.2s8-1.4,9.9-5.9c0,1,.3,3.5.6,4.9h7.9c-.2-1.8-.2-6.4-.2-10.5v-35.6ZM376.6,570.4c0,9.1-1.9,13.6-7.5,13.6s-6.4-4.4-6.4-9.8v-1c0-8.8,4.1-11.7,11-11.7h3v8.9Z"/>
    <path class="st0" d="M414.2,591.5c11.1,0,13.7-9.1,13.7-21.5v-23.4c0-10.5-3.6-17.6-12.3-17.6s-9.2,2.7-10.9,6.5v-28.1h-8.5v67.2c0,7.2,0,12.6-.1,16.1h7.7c.2-1.8.3-3.4.3-5.8,1.4,3.8,4.4,6.7,10.1,6.7ZM404.6,551.6c0-8.4,1.1-14.9,8-14.9s6.7,4.2,6.7,11.1v23.6c0,8.4-2.4,12.3-7.1,12.3s-7.7-4.2-7.7-13.4v-18.7Z"/>
    <path class="st0" d="M437.4,550.6v40.1h8.5v-35.7c0-11,5.1-15.3,12.6-15.4v-10.5c-5.3.1-10.6,2.8-12.8,10.3,0-4.1-.2-7.9-.3-9.5h-8.1c.2,5.4.1,10.9.1,20.7Z"/>
    <path class="st0" d="M464.6,586.8c-.8-.2-1.6-.4-2.5-.4s-1.4.2-2.2.5c-.9.3-1.7.8-2.5,1.3-.8.5-1.5,1.2-2,1.8-.5.7-.8,1.4-.8,2.1,0,1,0,2.2,0,3.7,0,1.5.2,3.2.3,5.3.2,3,.4,6.2.5,9.9.1,3.6.2,7.3.2,11,0,13-1.8,22.7-5.3,29.2s-9,9.7-16.3,9.7-2,0-2.9-.2c-.9-.1-1.7-.3-2.6-.6-.9-.3-1.8-.6-2.8-1-1-.4-2.1-.8-3.4-1.3-4-1.7-6.7-2.5-7.9-2.5-2.3,0-4.2.6-5.7,1.7-1.5,1.1-2.2,2.8-2.2,5s.5,2.4,1.5,3.5c.9.9,2,1.7,3.2,2.5,1.2.8,2.6,1.5,4.1,2.1,1.5.6,3.1,1.2,4.9,1.6,1.7.4,3.6.8,5.4,1,3.4.5,6.7.7,10,.7,2.4,0,4.7-.3,6.8-.6,2.1-.4,3.9-1,5.6-1.8,2.8-1.4,5.3-3.1,7.6-5.2,2.3-2.1,4.3-4.4,6-6.9,1.7-2.5,3.2-5.2,4.4-7.9s2.1-5.5,2.7-8.1c.8-3.4,1.3-7.8,1.7-13,.4-5.2.5-11.3.5-18.2-.2-1.9-.4-3.6-.5-5.1-.1-1.5-.3-3-.4-4.8-.2-1.7-.3-3.4-.5-4.9-.2-1.6-.3-2.9-.4-4-.1-1.1-.2-1.8-.3-2.1,0,0,0,0,0,0h4.3v-60.8h-8.5v56.9Z"/>
    <rect class="st0" x="464.6" y="507.4" width="8.5" height="12.3"/>
    <path class="st0" d="M498.1,591.6c13.5,0,15.1-10.8,15.1-17.9v-.4h-8.3v.5c0,5.8-1.1,10.5-6.8,10.5s-7.2-6.3-7.2-12.3v-9.9h22.5v-13.7c0-10.7-3.4-19.4-15.1-19.4s-15.7,10.2-15.7,19.4v22.6c0,12.3,2.9,20.7,15.5,20.7ZM490.9,547.6c0-6.6,1.5-11.3,7.2-11.3s7,5.6,7,11.2v7.6h-14.2v-7.5Z"/>
    <rect class="st0" x="522.6" y="507.4" width="8.5" height="83.3"/>
    <path class="st0" d="M771.9,630.4c0-.4-.2-.8-.4-1.3-.2-.4-.5-.9-.8-1.2s-.7-.6-1.3-.6-.9.1-1.3.4c-.4.3-.8.6-1.4,1.1-.5.5-1.1,1.1-1.9,1.9-.7.8-1.6,1.7-2.7,2.7-1.3,1.2-2.7,2.6-4.3,3.9-1.6,1.4-3.2,2.8-5,4.2-1.7,1.4-3.4,2.8-5.1,4.1s-3.3,2.5-4.8,3.6c-1.5,1.1-2.8,2-3.9,2.7-1.1.8-2,1.3-2.5,1.5-.5-.8-1.1-1.9-1.9-3.3s-1.7-2.9-2.6-4.4c-.9-1.5-1.8-3-2.7-4.5-.9-1.5-1.6-2.7-2.2-3.7-1.2-2.1-1.8-4.3-1.8-6.8.4-.5,1-1,1.7-1.7.7-.6,1.5-1.3,2.3-2.1.5-.5,1.2-1.1,1.9-1.7.7-.7,1.4-1.4,2.1-2.2.7-.8,1.2-1.6,1.7-2.5.5-.9.7-1.8.7-2.7s0-2.1-.3-2.9c-.2-.8-.5-1.5-1-2-.5-.5-1.2-.9-2.1-1.2-.9-.3-2-.4-3.4-.4s-2.3.4-3.7,1.2c-1.4.8-2.8,1.9-4.2,3.2-1.4,1.3-2.7,2.9-3.8,4.6-1.1,1.7-2,3.5-2.5,5.2-.5,1.4-.9,2.9-1.2,4.3-.2,1.3-.3,2.5-.3,3.7l-3,3c-2.5,2.5-5.1,4.9-7.7,7.3s-5.4,4.6-8.3,6.7c-1.6,1.2-3.4,2.3-5.4,3.4-2,1.1-4,2-6.1,2.8-2.1.8-4.2,1.5-6.4,2-2.1.5-4.2.7-6.1.7s-2.8-.2-4-.6c-1.2-.4-2.2-.9-3-1.5-.8-.6-1.5-1.4-2-2.2-.5-.9-.8-1.8-.8-2.7,2.4-1.8,4.6-3.5,6.5-4.9,1.9-1.5,3.7-2.8,5.1-4.1,4.5-3.9,8.1-7.7,10.7-11.4,2.6-3.7,3.8-7.3,3.8-10.8s-.2-3.6-.7-5.3c-.5-1.7-1.2-3.2-2.2-4.5-1-1.3-2.2-2.3-3.7-3.1-1.5-.8-3.3-1.2-5.3-1.2s-2.8.2-4.2.6c-1.4.4-2.8,1-4.1,1.7-1.3.7-2.5,1.5-3.7,2.4-1.1.9-2.1,1.8-3,2.8-2.3,2.6-4.3,5.3-5.9,8-1.6,2.8-2.9,5.6-3.9,8.4-.4,1-.7,2.1-1,3.1-.4.5-.8.9-1.3,1.4-2.4,2.5-4.9,4.9-7.3,7.1-2.4,2.2-4.8,4.2-7.2,5.8-2.3,1.7-4.6,3-6.7,3.9-2.1,1-4.1,1.4-5.9,1.4s-2.2-.4-3-1.3c-.8-.8-1.5-1.9-2-3.2s-.9-2.7-1.1-4.3c-.3-1.6-.5-3.1-.6-4.7-.3-3-.6-5.7-1.1-8.2-.5-2.5-1.2-4.7-2.1-6.5-1-1.8-2.2-3.3-3.8-4.3-1.6-1-3.7-1.5-6.2-1.5s-4.1.3-5.8,1c-1.7.6-3.3,1.5-4.8,2.6-1.5,1.1-2.8,2.4-4.2,3.9-1.3,1.5-2.7,3.1-4,4.8-1,1.3-2.1,2.7-3.1,4.2-1,1.5-2.1,2.9-3.1,4.3-1,1.4-2,2.7-2.9,4s-1.7,2.2-2.4,3.1c0-.9.3-2,.6-3.3.3-1.3.7-2.7,1-4.1.4-1.4.7-2.7,1.1-4,.4-1.3.7-2.3.8-3.1.3-1.2.6-2.4.9-3.3.3-1,.6-1.9.8-2.8.3-.9.5-1.7.6-2.5.2-.8.2-1.7.2-2.6s-.1-1.9-.4-2.7c-.3-.8-.6-1.4-1-2-.4-.5-.9-1-1.5-1.3-.5-.3-1.1-.4-1.7-.4s-1.3,0-2,.1c-.7,0-1.3.3-1.9.5-.6.3-1.2.7-1.8,1.2-.6.5-1.1,1.3-1.6,2.2-.7,1.4-1.3,2.9-1.8,4.5-1.3.4-2.5.6-3.7.8-1.6.3-3.1.4-4.7.4-1.6,0-3.2,0-5,0s-3.6-.2-5.7-.7c-2.1-.5-4.1-1-6-1.6-1.9-.6-3.5-1.2-4.9-1.8-1.4-.6-2.2-1.1-2.5-1.4l-1.2-1.3c-.9-1-1.7-1.9-2.4-2.7-.8-.8-1.6-1.5-2.4-2.1-.8-.6-1.7-1-2.7-1.3-1-.3-2.2-.5-3.5-.5s-3.3.3-5.1,1c-1.8.7-3.5,1.5-5.2,2.7-1.7,1.1-3.4,2.4-4.9,3.8-1.6,1.4-2.9,2.8-4.1,4.3-2.1,2.5-4,5.1-5.9,7.7-1.9,2.6-3.5,5.2-4.9,7.9-1.4,2.7-2.5,5.5-3.4,8.3-.8,2.9-1.3,5.9-1.3,9s.4,3.5,1.1,5.3c.8,1.8,1.8,3.4,3,4.8,1.3,1.4,2.7,2.6,4.4,3.5,1.7.9,3.4,1.3,5.2,1.3s4.4-.1,6.6-.4c2.2-.3,4.3-.7,6.3-1.2s4-1.2,5.8-2c1.8-.8,3.5-1.8,5-2.9,1.9-1.4,3.8-3.1,5.6-5,1.8-1.9,3.5-4,4.9-6.3s2.6-4.6,3.5-7.1c.9-2.5,1.3-4.9,1.3-7.4s0-.8,0-1.4c0-.6,0-1.2-.1-1.9,0-.7-.2-1.3-.3-1.9-.2-.6-.3-1.1-.6-1.4,1.1.5,2.3,1,3.5,1.4s2.5.7,3.7,1c1.3.3,2.5.5,3.7.6,1.2.2,2.4.2,3.5.2,3.8,0,7-.4,9.6-1,.4-.1.9-.2,1.3-.4-.2.9-.3,1.9-.5,2.8-.3,2-.6,3.9-.8,5.8-.5,4.1-.7,7.2-.7,9.3,0,8.3,2.4,13,7.3,14,1.2-.4,2.6-1.2,4.1-2.4,1.5-1.1,2.9-2.5,4.4-4,1.5-1.5,2.9-3.1,4.2-4.7,1.3-1.6,2.5-3.1,3.4-4.4,2.7-3.8,4.9-6.9,6.6-9.2,1.7-2.3,3.1-4.1,4.2-5.3s2-2,2.8-2.4c.7-.4,1.5-.6,2.3-.6s1.7,1.1,2.3,3.2c.6,2.2,1.2,5.1,1.7,8.8.3,2.7.8,5.3,1.5,7.8.6,2.5,1.6,4.7,2.8,6.7,1.2,1.9,2.8,3.5,4.7,4.7,1.9,1.2,4.3,1.7,7.3,1.7s3.4-.2,4.9-.5,2.9-.8,4.3-1.5c1.3-.6,2.6-1.3,3.9-2.1,1.3-.8,2.6-1.7,3.9-2.6,1.7-1.2,3.5-2.5,5.2-4.1,1.7-1.6,3.5-3.2,5.1-4.9.6-.7,1.3-1.3,1.9-2,0,7.5,1.9,13.1,5.6,16.9,3.7,3.8,8.9,5.6,15.5,5.6s6-.5,9.1-1.4c3.1-.9,6.2-2.2,9.3-3.8,3.1-1.6,6.2-3.5,9.2-5.7,3-2.2,5.9-4.6,8.7-7.1,2.8-2.6,5.4-5.3,7.9-8.1.9-1.1,1.8-2.2,2.7-3.2.1.3.3.6.4.9.3.7.8,1.5,1.5,2.4.6,1,1.3,2,2,3.1s1.4,2.2,2.1,3.4c.7,1.1,1.4,2.2,2,3.2s1.1,1.8,1.4,2.6c.4.7.6,1.2.6,1.5,0,1.2-.2,2.2-.7,3-.5.8-1.1,1.5-2,2.2-.9.6-1.9,1.2-3.1,1.8-1.2.5-2.5,1.1-4,1.7-2.3.9-4.2,1.8-5.9,2.7-1.7.9-3,1.8-4.1,2.7-1.1.9-1.9,1.9-2.4,3-.5,1.1-.8,2.3-.8,3.6s.1,1.1.4,1.6c.3.5.7,1,1.3,1.4s1.3.7,2.3,1c.9.3,2.1.4,3.4.4s3.5-.4,5.6-1.3c2.1-.9,4.3-2.1,6.7-3.7.7-.5,2-1.4,3.7-2.8,1.7-1.4,3.8-3,6-4.8,2.3-1.8,4.7-3.8,7.3-5.9s5-4.2,7.4-6.1c2.4-2,4.5-3.8,6.4-5.5,1.9-1.7,3.3-2.9,4.3-3.9,1.6-1.6,3.3-3.3,5.1-5.1,1.7-1.8,3.3-3.6,4.8-5.3,1.4-1.7,2.6-3.4,3.5-5s1.4-2.9,1.4-3.9,0-.3-.1-.7ZM525.5,637.8c0,.3,0,.7,0,1.4,0,.7-.2,1.4-.3,2.2-.1.8-.3,1.5-.5,2.3-.2.8-.5,1.4-.8,1.8-.5.9-1.1,1.7-1.8,2.7-.7.9-1.3,1.8-2,2.6-.7.8-1.4,1.6-2.1,2.3-.7.7-1.4,1.4-2.1,1.9-1.5,1.1-2.8,2.1-3.9,2.8-1.1.8-2.1,1.4-3.2,1.8-1,.4-2.2.8-3.4.9-1.2.2-2.7.3-4.5.3s-1.4-.2-1.9-.5c-.5-.3-.9-.8-1.2-1.3-.3-.5-.5-1.2-.7-1.8-.2-.7-.2-1.3-.2-2,0-1.6.2-3.3.5-5.1.3-1.8.8-3.3,1.4-4.6.7-1.4,1.4-2.6,2-3.7.7-1.1,1.3-2.2,2-3.2.7-1,1.4-2,2.1-3,.7-1,1.5-1.9,2.3-2.9.7-.8,1.3-1.7,2.1-2.6.7-.9,1.4-1.8,2.1-2.6.7-.8,1.3-1.5,1.9-2,.6-.5,1-.8,1.3-.8s.2.1.4.3.5.5,1,.9c.5.3,1.2.7,2,1.1.9.4,2,.8,3.3,1.1.9.2,1.6.7,2.2,1.4.5.7,1,1.5,1.3,2.4.3.9.5,1.9.6,2.9,0,1,.1,2.1.1,3h0ZM662.3,632.3c1.1-2.9,2.3-5.4,3.6-7.5,1.4-2.1,2.8-3.7,4.3-4.8,1.5-1.1,2.9-1.7,4.2-1.7.4.2.7.7.8,1.5s.3,1.6.3,2.4c0,2-.5,3.9-1.4,5.7s-2.2,3.5-3.7,5.2c-1.5,1.6-3.2,3.2-5,4.7-1.8,1.5-3.7,2.9-5.5,4.3.5-3.6,1.3-6.8,2.4-9.8Z"/>
  </g>
</svg>